HIERARCHY
ROOT root
{
	OFFSET	0	13.1	24.9
	CHANNELS 6  Xposition Yposition Zposition Xrotation Yrotation Zrotation
	JOINT spine_1
	{
		OFFSET	0	9.99999	0
		CHANNELS 3  Xrotation Yrotation Zrotation
		JOINT spine_2
		{
			OFFSET	0	112	-10
			CHANNELS 3  Xrotation Yrotation Zrotation
			JOINT spine_3
			{
				OFFSET	0	206.5	19.3
				CHANNELS 3  Xrotation Yrotation Zrotation
				JOINT spine_4
				{
					OFFSET	0	110.4	14.6
					CHANNELS 3  Xrotation Yrotation Zrotation
					JOINT neck_1
					{
						OFFSET	0	71.8	-50.3
						CHANNELS 3  Xrotation Yrotation Zrotation
						JOINT neck_2
						{
							OFFSET	0	86.2	-25.8
							CHANNELS 3  Xrotation Yrotation Zrotation
							JOINT head_ee
							{
								OFFSET	0	179.8	-8.7
								CHANNELS 3  Xrotation Yrotation Zrotation
								End Site
								{
									OFFSET	1	0	0
								}
							}
						}
					}
					JOINT left_clavicle
					{
						OFFSET	-43.2	22.4	-70.8
						CHANNELS 3  Xrotation Yrotation Zrotation
						JOINT left_shoulder
						{
							OFFSET	-93.9	-5.79999	48.7
							CHANNELS 3  Xrotation Yrotation Zrotation
							JOINT left_elbow
							{
								OFFSET	-291.4	-30.8	15.2
								CHANNELS 3  Xrotation Yrotation Zrotation
								JOINT left_lowarm_twist
								{
									OFFSET	-110.7	-3.89999	13.6
									CHANNELS 3  Xrotation Yrotation Zrotation
									JOINT left_hand
									{
										OFFSET	-110.7	-3.89999	13.6
										CHANNELS 3  Xrotation Yrotation Zrotation
										JOINT left_ee
										{
											OFFSET	-80.8	-5.10001	12.1
											CHANNELS 3  Xrotation Yrotation Zrotation
											End Site
											{
												OFFSET	1	0	0
											}
										}
									}
								}
							}
						}
					}
					JOINT right_clavicle
					{
						OFFSET	43.2	22.4	-70.8
						CHANNELS 3  Xrotation Yrotation Zrotation
						JOINT right_shoulder
						{
							OFFSET	93.9	-5.79999	48.7
							CHANNELS 3  Xrotation Yrotation Zrotation
							JOINT right_elbow
							{
								OFFSET	291.4	-30.8	15.2
								CHANNELS 3  Xrotation Yrotation Zrotation
								JOINT right_lowarm_twist
								{
									OFFSET	110.7	-3.89999	13.6
									CHANNELS 3  Xrotation Yrotation Zrotation
									JOINT right_hand
									{
										OFFSET	110.7	-3.89999	13.6
										CHANNELS 3  Xrotation Yrotation Zrotation
										JOINT right_ee
										{
											OFFSET	80.8	-5.10001	12.1
											CHANNELS 3  Xrotation Yrotation Zrotation
											End Site
											{
												OFFSET	1	0	0
											}
										}
									}
								}
							}
						}
					}
				}
			}
		}
	}
	JOINT left_hip
	{
		OFFSET	-82.8	-127.5	0.300001
		CHANNELS 3  Xrotation Yrotation Zrotation
		JOINT left_knee
		{
			OFFSET	-28.2	-396.7	2.2
			CHANNELS 3  Xrotation Yrotation Zrotation
			JOINT left_ankle
			{
				OFFSET	-11.7	-411.3	35.4
				CHANNELS 3  Xrotation Yrotation Zrotation
				JOINT left_toes
				{
					OFFSET	0	-60	-88.6
					CHANNELS 3  Xrotation Yrotation Zrotation
					JOINT left_foot_ee
					{
						OFFSET	-22.5	-16.5	-42.2
						CHANNELS 3  Xrotation Yrotation Zrotation
						End Site
						{
							OFFSET	1	0	0
						}
					}
				}
			}
		}
	}
	JOINT right_hip
	{
		OFFSET	82.8	-127.5	0.300001
		CHANNELS 3  Xrotation Yrotation Zrotation
		JOINT right_knee
		{
			OFFSET	28.2	-396.7	2.2
			CHANNELS 3  Xrotation Yrotation Zrotation
			JOINT right_ankle
			{
				OFFSET	11.7	-411.3	35.4
				CHANNELS 3  Xrotation Yrotation Zrotation
				JOINT right_toes
				{
					OFFSET	0	-60	-88.6
					CHANNELS 3  Xrotation Yrotation Zrotation
					JOINT right_foot_ee
					{
						OFFSET	22.5	-16.5	-42.2
						CHANNELS 3  Xrotation Yrotation Zrotation
						End Site
						{
							OFFSET	1	0	0
						}
					}
				}
			}
		}
	}
}
MOTION
Frames: 12
Frame Time: 0.02
2004.57 709.546 -583.208 16.1025 -78.3081 20.0353 0.491995 -0.217875 -2.65931 0.495928 -0.0482759 -2.66778 0.499497 0.490986 -2.62268 0.489906 0.0707743 -2.66727 -9.55657 -1.6566 4.44292 -9.50683 -6.14788 3.95115 -0.0 0.0 -0.0 0.780481 6.18418 2.14528 -13.7952 -10.3079 76.6682 1.4867 -36.3681 0.488368 -28.9781 -1.86235 3.1621 1.10804 -16.7106 0.308596 -0.0 0.0 -0.0 -0.603336 7.24138 2.09282 26.5679 9.64745 -70.1747 0.703646 19.2168 -0.11912 26.6606 -0.157437 3.37146 4.70989 7.57085 -29.8943 0.0 0.0 0.0 26.0239 -12.8994 -6.35897 -53.2073 -1.51282 7.73593 32.6924 -5.48476 -4.25119 -35.8264 0.0 0.0 -0.0 0.0 -0.0 -12.1695 23.41 -15.2711 -7.71422 -0.239907 -1.1587 41.1211 -13.3092 5.0078 -5.18221 0.0 0.0 0.0 0.0 0.0 
2010.52 707.563 -581.441 17.0123 -78.4418 20.7992 0.372653 -0.21254 -2.64164 0.376534 -0.0440753 -2.6498 0.379991 0.496908 -2.6032 0.370543 0.0796954 -2.64897 -10.2215 -2.02529 4.20981 -10.1829 -6.64678 3.59095 -0.0 0.0 -0.0 0.305593 6.43348 1.31509 -14.78 -9.60162 77.0753 1.27825 -32.3409 0.370666 -29.0199 -1.86614 3.16589 1.05478 -15.5859 0.446332 -0.0 0.0 -0.0 -0.749186 7.58049 2.43458 28.5812 10.1567 -69.5426 0.915631 24.3976 -0.19795 27.1121 -0.146547 3.4281 4.79635 8.03413 -30.3363 0.0 0.0 0.0 29.8401 -13.8381 -5.14132 -52.3593 -1.4338 7.63189 31.4038 -4.70131 -4.10704 -36.8929 0.0 0.0 -0.0 0.0 -0.0 -12.8696 23.609 -15.1887 -7.31194 -0.231271 -1.09757 41.3038 -13.0783 5.02063 -5.10244 0.0 0.0 0.0 0.0 0.0 
2017.41 708.872 -580.457 16.8135 -78.0421 20.6034 0.271319 -0.367174 -2.52139 0.274833 -0.206041 -2.53962 0.285543 0.319876 -2.52782 0.276635 -0.0832263 -2.5466 -11.3343 -2.64983 4.09081 -11.3114 -7.69038 3.23737 -0.0 0.0 -0.0 0.650914 6.59902 1.95453 -15.4137 -10.1024 76.0716 1.02381 -26.8918 0.244778 -29.7242 -1.93039 3.22934 1.04953 -12.7969 1.62812 -0.0 0.0 -0.0 -0.447407 7.87558 1.85277 27.0089 11.1956 -68.8379 1.46983 36.0565 -0.478402 28.4392 -0.111951 3.5941 4.72826 10.1262 -28.7488 0.0 0.0 0.0 32.4841 -14.1899 -4.67224 -51.1117 -1.32036 7.47675 28.7006 -0.589799 -3.77449 -39.1493 0.0 0.0 -0.0 0.0 -0.0 -13.3504 23.1361 -15.381 -6.91312 -0.222286 -1.03703 41.2933 -13.7587 5.0287 -5.09955 0.0 0.0 0.0 0.0 0.0 
2021.57 706.845 -578.217 15.6304 -78.2679 19.5391 0.172404 -0.442211 -2.47016 0.175754 -0.284182 -2.49328 0.189818 0.237977 -2.49811 0.181145 -0.159412 -2.50434 -12.1213 -2.87077 3.5602 -12.1163 -7.72986 2.60857 -0.0 0.0 -0.0 0.664774 6.02429 1.91954 -16.4084 -9.01904 76.3101 0.860465 -23.0859 0.175738 -29.5655 -1.91584 3.21511 1.08896 -13.299 1.67514 -0.0 0.0 -0.0 -0.349661 9.67497 1.87204 29.0694 12.0621 -69.1828 1.72827 40.5645 -0.63874 27.8183 -0.128617 3.51653 4.9503 10.3017 -30.3695 0.0 0.0 0.0 34.5251 -14.407 -4.27782 -50.3383 -1.25176 7.37937 27.7815 -0.947195 -3.67611 -38.8037 0.0 0.0 -0.0 0.0 -0.0 -13.5807 23.2808 -15.4237 -6.56452 -0.214087 -0.984165 41.2703 -12.2584 5.00792 -5.07553 0.0 0.0 0.0 0.0 0.0 
2031.91 705.949 -576.233 14.7931 -78.5701 18.811 0.248593 -0.416871 -2.41872 0.251809 -0.262163 -2.44033 0.264518 0.245387 -2.44207 0.256224 -0.143253 -2.45018 -12.5704 -3.14211 3.23646 -12.5778 -8.02137 2.18751 -0.0 0.0 -0.0 0.634803 6.30358 1.8946 -17.5181 -8.4681 75.8874 0.720311 -19.6375 0.124664 -29.7301 -1.93093 3.22986 1.09573 -12.513 2.06267 -0.0 0.0 -0.0 -0.201327 10.4129 1.65287 29.2264 12.3974 -68.7765 2.05528 45.5092 -0.86212 27.9937 -0.123994 3.53846 4.99826 10.9242 -30.4119 0.0 0.0 0.0 35.9714 -14.6123 -4.02347 -47.363 -1.00034 6.99649 26.1597 0.323344 -3.48432 -39.5049 0.0 0.0 -0.0 0.0 -0.0 -14.0819 23.2206 -15.6439 -6.33498 -0.208512 -0.94938 40.9334 -12.2513 4.97879 -5.12695 0.0 0.0 0.0 0.0 0.0 
2041.81 704.238 -573.322 12.7898 -78.8598 17.0886 0.286632 -0.351086 -2.38413 0.289772 -0.198711 -2.40162 0.299503 0.298109 -2.39132 0.291533 -0.0831837 -2.40839 -12.429 -2.98803 2.67763 -12.4392 -7.37795 1.7059 -0.0 0.0 -0.0 0.647501 6.1082 1.89707 -18.3275 -8.7301 75.2557 0.510009 -14.1789 0.06343 -31.3201 -2.07885 3.37019 1.40659 -10.3191 5.1144 -0.0 0.0 -0.0 -0.240835 12.1771 1.94598 29.6486 13.2763 -67.9893 2.34255 49.2398 -1.07361 27.3103 -0.141624 3.45295 5.04783 10.9623 -30.7769 0.0 0.0 0.0 37.1543 -14.6828 -3.91761 -43.1311 -0.677887 6.43095 23.3161 6.41306 -3.13325 -40.108 0.0 0.0 -0.0 0.0 -0.0 -14.4782 23.1736 -16.0966 -5.20264 -0.178975 -0.778118 40.4736 -12.7136 4.94401 -4.95773 0.0 0.0 0.0 0.0 0.0 
2048.64 700.664 -570.867 11.6984 -78.5908 15.9193 0.205656 -0.281888 -2.0748 0.208038 -0.149322 -2.08852 0.214574 0.285297 -2.07433 0.208572 -0.0458115 -2.09335 -13.201 -3.49917 2.72855 -13.2257 -8.36164 1.54904 -0.0 0.0 -0.0 0.569309 5.57861 1.69926 -19.329 -8.17967 74.8145 0.494567 -13.7662 0.0597014 -30.1825 -1.97262 3.27021 1.15412 -11.231 3.01243 -0.0 0.0 -0.0 -0.104207 12.6336 1.71268 30.4941 13.1161 -67.9743 2.57124 51.8558 -1.25023 28.2923 -0.115971 3.57576 5.04199 11.8084 -30.2749 0.0 0.0 0.0 38.4311 -14.8564 -3.74407 -42.8204 -0.655881 6.38853 23.8169 2.8864 -3.19974 -40.2594 0.0 0.0 -0.0 0.0 -0.0 -14.8165 23.1385 -16.4263 -5.58119 -0.189226 -0.835309 40.6168 -12.2836 4.95163 -5.16339 0.0 0.0 0.0 0.0 0.0 
2059.31 697.627 -571.42 11.4789 -78.8084 15.8362 0.341364 -0.260644 -2.10164 0.343813 -0.126414 -2.11396 0.349484 0.308048 -2.09522 0.343359 -0.0266418 -2.11756 -13.3378 -3.63879 2.58095 -13.3678 -8.53214 1.35535 -0.0 0.0 -0.0 0.510743 5.91976 1.62947 -20.287 -7.87834 74.7524 0.410945 -11.5067 0.0414044 -30.2433 -1.97825 3.2756 1.15455 -10.8194 3.19322 -0.0 0.0 -0.0 -0.112345 12.7521 1.74373 31.1637 13.5186 -67.5919 2.77554 53.9611 -1.41322 28.3657 -0.113969 3.58492 5.08122 12.1232 -30.4068 0.0 0.0 0.0 39.606 -14.9899 -3.59702 -40.5583 -0.50267 6.07626 23.1633 3.35463 -3.12075 -40.5105 0.0 0.0 -0.0 0.0 -0.0 -15.3461 23.1759 -16.6934 -5.49843 -0.187017 -0.8228 40.5497 -12.3087 4.94605 -5.15925 0.0 0.0 0.0 0.0 0.0 
2070.14 693.438 -572.852 11.0616 -78.8281 15.5238 0.270537 -0.188343 -1.97842 0.272713 -0.0620948 -1.9864 0.275746 0.347495 -1.95676 0.270405 0.0341635 -1.98707 -13.4511 -3.71955 2.47276 -13.4847 -8.6163 1.21876 -0.0 0.0 -0.0 0.434858 5.96893 1.4973 -21.1359 -7.70549 74.4559 0.346501 -9.73991 0.0295226 -30.3682 -1.98983 3.28667 1.17337 -10.5331 3.44407 -0.0 0.0 -0.0 -0.0998229 13.3098 1.7827 31.9355 13.7914 -67.1011 2.91698 55.3041 -1.52858 28.4158 -0.112595 3.59118 5.09489 12.3437 -30.3917 0.0 0.0 0.0 40.955 -15.1143 -3.55112 -38.1103 -0.350945 5.73192 22.7017 3.91402 -3.064 -40.532 0.0 0.0 -0.0 0.0 -0.0 -16.1543 23.303 -16.8212 -5.2167 -0.179363 -0.780243 40.5009 -12.3356 4.94207 -5.17717 0.0 0.0 0.0 0.0 0.0 
2078.67 689.573 -572.128 10.1233 -79.2622 14.8232 0.267089 -0.139384 -1.90638 0.269111 -0.0178167 -1.91138 0.270487 0.375595 -1.87421 0.265593 0.0749409 -1.90999 -13.5474 -3.75377 2.33698 -13.5834 -8.59556 1.07146 -0.0 0.0 -0.0 0.422581 6.15911 1.49588 -22.0298 -7.49158 74.3413 0.298066 -8.39941 0.0218872 -30.4505 -1.99746 3.29394 1.18469 -10.3173 3.6137 -0.0 0.0 -0.0 -0.0965025 13.6354 1.81374 32.5846 13.9406 -66.7926 3.05017 56.4905 -1.63886 28.4604 -0.111367 3.59675 5.09948 12.4964 -30.343 0.0 0.0 0.0 42.0817 -15.1509 -3.39115 -36.0905 -0.236964 5.44323 22.364 4.33504 -3.02244 -40.5231 0.0 0.0 -0.0 0.0 -0.0 -16.4531 23.3484 -16.9085 -5.14938 -0.177502 -0.770078 40.4711 -12.3565 4.9397 -5.1872 0.0 0.0 0.0 0.0 0.0 
2083.82 687.32 -573.276 1.502 -78.413 6.35284 0.605196 -0.341273 -1.88741 0.607151 -0.220503 -1.90529 0.615241 0.164379 -1.91095 0.610171 -0.139426 -1.91293 -13.5378 -2.46009 -0.629698 -13.5495 -4.29723 -1.35292 -0.0 0.0 -0.0 0.866221 6.26082 2.30786 -22.4807 -7.093 73.4249 0.197535 -5.5889 0.00964184 -31.2103 -2.06851 3.36063 1.34267 -12.2689 3.83433 -0.0 0.0 -0.0 -0.0779605 13.714 1.78371 33.333 14.1639 -66.6142 3.14219 57.2691 -1.71594 27.7458 -0.130506 3.50747 4.85552 10.8194 -29.3648 0.0 0.0 0.0 40.9441 -14.6125 -2.82439 -26.1957 0.170879 3.98148 18.8732 8.01642 -2.59031 -40.1608 0.0 0.0 -0.0 0.0 -0.0 -16.3726 23.5225 -17.1922 -2.05473 -0.0791321 -0.305385 41.151 -13.725 5.01592 -5.49743 0.0 0.0 0.0 0.0 0.0 
2096.34 680.133 -571.64 0.580799 -78.6275 5.79787 0.52071 -0.453579 -1.68549 0.522225 -0.345425 -1.71092 0.533282 0.00558887 -1.74543 0.529132 -0.270097 -1.72442 -14.1456 -3.37529 1.34363 -14.1808 -7.25806 0.204389 -0.0 0.0 -0.0 0.385923 5.79749 1.38974 -23.0446 -7.18347 74.1677 0.179347 -5.07713 0.00795142 -30.6847 -2.01927 3.3146 1.16249 -9.87322 3.65485 -0.0 0.0 -0.0 0.00799493 14.0899 1.64546 34.1188 13.7689 -66.6058 3.27321 58.3233 -1.8268 28.5201 -0.109718 3.60419 5.00255 12.5939 -29.5433 0.0 0.0 0.0 43.6367 -14.6825 -3.1039 -29.3524 0.0683244 4.45502 18.7546 6.90073 -2.57518 -40.2934 0.0 0.0 -0.0 0.0 -0.0 -16.5169 23.3695 -17.5308 -2.43387 -0.0925326 -0.362029 41.4858 -12.1907 5.02561 -5.0264 0.0 0.0 0.0 0.0 0.0 
